<?xml version="1.0" encoding="UTF-8"?>
<!DOCTYPE svg PUBLIC "-//W3C//DTD SVG 1.1//EN" "http://www.w3.org/Graphics/SVG/1.1/DTD/svg11.dtd">
<svg xmlns="http://www.w3.org/2000/svg" version="1.1" width="300px" height="300px" style="shape-rendering:geometricPrecision; text-rendering:geometricPrecision; image-rendering:optimizeQuality; fill-rule:evenodd; clip-rule:evenodd" xmlns:xlink="http://www.w3.org/1999/xlink">
<g><path style="opacity:0.667" fill="#efebee" d="M 199.5,-0.5 C 199.833,-0.5 200.167,-0.5 200.5,-0.5C 200.315,0.170143 199.981,0.170143 199.5,-0.5 Z"/></g>
<g><path style="opacity:1" fill="#b2d9b3" d="M 202.5,5.5 C 194.063,2.4655 186.397,3.9655 179.5,10C 178.207,10.49 176.873,10.6567 175.5,10.5C 182.096,4.87261 189.763,2.03928 198.5,2C 200.544,2.49833 201.878,3.66499 202.5,5.5 Z"/></g>
<g><path style="opacity:1" fill="#6dbe70" d="M 202.5,5.5 C 205.272,7.83163 206.939,10.8316 207.5,14.5C 194.167,14.5 180.833,14.5 167.5,14.5C 169.482,11.8633 172.148,10.53 175.5,10.5C 176.873,10.6567 178.207,10.49 179.5,10C 186.397,3.9655 194.063,2.4655 202.5,5.5 Z"/></g>
<g><path style="opacity:1" fill="#9dcde7" d="M 286.5,15.5 C 236.167,15.5 185.833,15.5 135.5,15.5C 145.987,14.5056 156.654,14.1722 167.5,14.5C 180.833,14.5 194.167,14.5 207.5,14.5C 232.193,14.8144 256.859,14.4811 281.5,13.5C 283.422,13.8008 285.088,14.4675 286.5,15.5 Z"/></g>
<g><path style="opacity:1" fill="#fdf0e5" d="M 130.5,16.5 C 129.761,16.631 129.094,16.4643 128.5,16C 129.437,15.3083 130.103,15.475 130.5,16.5 Z"/></g>
<g><path style="opacity:1" fill="#42a5f7" d="M 291.5,230.5 C 289.696,232.467 287.696,234.301 285.5,236C 267.503,236.5 249.503,236.667 231.5,236.5C 229.052,235.527 226.385,235.194 223.5,235.5C 220.833,235.5 218.167,235.5 215.5,235.5C 213.107,234.79 210.607,234.123 208,233.5C 183.736,234.162 159.569,234.829 135.5,235.5C 133.589,234.925 131.922,233.925 130.5,232.5C 129.833,232.5 129.5,232.167 129.5,231.5C 129.326,229.139 128.993,226.806 128.5,224.5C 129.333,157.001 129.833,89.3346 130,21.5C 130.903,20.2986 132.069,19.4652 133.5,19C 182.17,18.1667 230.837,18.3334 279.5,19.5C 280.853,20.5237 281.52,21.857 281.5,23.5C 284.079,23.0833 286.246,23.75 288,25.5C 288.003,92.6414 288.67,159.641 290,226.5C 290.833,158.831 290.667,91.1642 289.5,23.5C 288.167,22.5 286.833,21.5 285.5,20.5C 286.698,20.0604 287.865,19.727 289,19.5C 289.249,20.624 289.749,21.624 290.5,22.5C 291.5,91.8301 291.833,161.163 291.5,230.5 Z"/></g>
<g><path style="opacity:0.267" fill="#f8f4ed" d="M 110.5,25.5 C 111.833,26.1667 111.833,26.1667 110.5,25.5 Z"/></g>
<g><path style="opacity:1" fill="#e4f8fb" d="M 103.5,27.5 C 104.833,28.1667 104.833,28.1667 103.5,27.5 Z"/></g>
<g><path style="opacity:1" fill="#f5c1bd" d="M 114.5,29.5 C 110.633,29.2417 106.966,29.9084 103.5,31.5C 103.881,30.0689 104.881,29.2355 106.5,29C 109.367,28.1993 112.034,28.3659 114.5,29.5 Z"/></g>
<g><path style="opacity:1" fill="#e5f5ed" d="M 96.5,31.5 C 97.8333,32.1667 97.8333,32.1667 96.5,31.5 Z"/></g>
<g><path style="opacity:1" fill="#5cacf0" d="M 135.5,15.5 C 185.833,15.5 236.167,15.5 286.5,15.5C 290.296,16.8001 292.463,19.4668 293,23.5C 293.5,91.4992 293.667,159.499 293.5,227.5C 292.662,227.842 292.328,228.508 292.5,229.5C 292.5,230.167 292.167,230.5 291.5,230.5C 291.833,161.163 291.5,91.8301 290.5,22.5C 289.749,21.624 289.249,20.624 289,19.5C 287.865,19.727 286.698,20.0604 285.5,20.5C 286.833,21.5 288.167,22.5 289.5,23.5C 290.667,91.1642 290.833,158.831 290,226.5C 288.67,159.641 288.003,92.6414 288,25.5C 286.246,23.75 284.079,23.0833 281.5,23.5C 281.52,21.857 280.853,20.5237 279.5,19.5C 230.837,18.3334 182.17,18.1667 133.5,19C 132.069,19.4652 130.903,20.2986 130,21.5C 129.833,89.3346 129.333,157.001 128.5,224.5C 128.5,156.833 128.5,89.1667 128.5,21.5C 128.392,19.4862 129.058,17.8195 130.5,16.5C 132.117,15.962 133.784,15.6287 135.5,15.5 Z"/></g>
<g><path style="opacity:0.267" fill="#edfff8" d="M 99.5,34.5 C 98.8333,33.1667 98.8333,33.1667 99.5,34.5 Z"/></g>
<g><path style="opacity:1" fill="#ee5a56" d="M 114.5,29.5 C 116.853,30.3403 118.853,31.6736 120.5,33.5C 121.091,34.1515 121.757,34.8182 122.5,35.5C 112.757,41.0383 102.757,46.0383 92.5,50.5C 91.5028,50.5299 90.8361,50.0299 90.5,49C 91.4138,47.5936 92.0805,46.0936 92.5,44.5C 92.4677,42.3812 93.4677,41.0478 95.5,40.5C 97.522,39.493 98.8553,37.8263 99.5,35.5C 99.5,35.1667 99.5,34.8333 99.5,34.5C 101.233,33.9924 101.566,33.159 100.5,32C 101.448,31.5172 102.448,31.3505 103.5,31.5C 106.966,29.9084 110.633,29.2417 114.5,29.5 Z"/></g>
<g><path style="opacity:1" fill="#f8dbd4" d="M 99.5,35.5 C 98.8553,37.8263 97.522,39.493 95.5,40.5C 95.5106,38.9826 96.1772,37.8159 97.5,37C 97.1667,36.6667 96.8333,36.3333 96.5,36C 97.448,35.5172 98.448,35.3505 99.5,35.5 Z"/></g>
<g><path style="opacity:0.4" fill="#ecfdfc" d="M 90.5,39.5 C 91.8333,40.1667 91.8333,40.1667 90.5,39.5 Z"/></g>
<g><path style="opacity:1" fill="#66bb69" d="M 127.5,33.5 C 127.5,97.5 127.5,161.5 127.5,225.5C 107.201,184.853 86.8678,144.186 66.5,103.5C 64.1586,98.1324 61.8252,92.7991 59.5,87.5C 57.1568,82.4611 55.8235,77.1277 55.5,71.5C 58.0842,71.4312 60.0842,70.2645 61.5,68C 64.914,67.7031 68.2473,67.0365 71.5,66C 70.2889,64.8869 70.2889,63.7202 71.5,62.5C 79.1886,60.6747 86.1886,57.508 92.5,53C 91.944,52.6174 91.6107,52.1174 91.5,51.5C 92.1667,51.5 92.5,51.1667 92.5,50.5C 102.757,46.0383 112.757,41.0383 122.5,35.5C 121.757,34.8182 121.091,34.1515 120.5,33.5C 122.714,33.9297 125.047,33.9297 127.5,33.5 Z"/></g>
<g><path style="opacity:1" fill="#4eaadc" d="M 128.5,21.5 C 128.5,89.1667 128.5,156.833 128.5,224.5C 128.993,226.806 129.326,229.139 129.5,231.5C 128.262,229.786 127.595,227.786 127.5,225.5C 127.5,161.5 127.5,97.5 127.5,33.5C 127.389,32.8826 127.056,32.3826 126.5,32C 127.135,28.3973 127.802,24.8973 128.5,21.5 Z"/></g>
<g><path style="opacity:1" fill="#ea938b" d="M 92.5,44.5 C 92.0805,46.0936 91.4138,47.5936 90.5,49C 90.8361,50.0299 91.5028,50.5299 92.5,50.5C 92.5,51.1667 92.1667,51.5 91.5,51.5C 90.1932,52.1534 88.8599,52.8201 87.5,53.5C 86.537,53.0302 86.537,52.3635 87.5,51.5C 87.5106,49.9826 88.1772,48.8159 89.5,48C 89.1667,47.6667 88.8333,47.3333 88.5,47C 89.9839,46.3378 91.3172,45.5045 92.5,44.5 Z"/></g>
<g><path style="opacity:1" fill="#8cc98d" d="M 87.5,51.5 C 86.537,52.3635 86.537,53.0302 87.5,53.5C 88.8599,52.8201 90.1932,52.1534 91.5,51.5C 91.6107,52.1174 91.944,52.6174 92.5,53C 86.1886,57.508 79.1886,60.6747 71.5,62.5C 70.2889,63.7202 70.2889,64.8869 71.5,66C 68.2473,67.0365 64.914,67.7031 61.5,68C 60.0842,70.2645 58.0842,71.4312 55.5,71.5C 56.2026,69.2843 57.5359,67.451 59.5,66C 69.3791,61.8962 78.7125,57.0628 87.5,51.5 Z"/></g>
<g><path style="opacity:1" fill="#a4cfa6" d="M 55.5,71.5 C 55.8235,77.1277 57.1568,82.4611 59.5,87.5C 58.8333,87.8333 58.1667,88.1667 57.5,88.5C 55.5975,84.7927 54.2641,80.7927 53.5,76.5C 54.0276,74.6639 54.6942,72.9972 55.5,71.5 Z"/></g>
<g><path style="opacity:1" fill="#fdffe5" d="M 39.5,88.5 C 39.8966,87.475 40.5632,87.3083 41.5,88C 40.9056,88.4643 40.2389,88.631 39.5,88.5 Z"/></g>
<g><path style="opacity:1" fill="#fffee5" d="M 48.5,88.5 C 49.2506,87.4265 50.2506,87.2599 51.5,88C 50.552,88.4828 49.552,88.6495 48.5,88.5 Z"/></g>
<g><path style="opacity:1" fill="#fee0ac" d="M 49.5,90.5 C 44.3266,90.263 39.9932,91.9297 36.5,95.5C 38.0786,91.2257 41.2453,89.2257 46,89.5C 47.3847,89.5143 48.5514,89.8476 49.5,90.5 Z"/></g>
<g><path style="opacity:1" fill="#fafcfc" d="M 237.5,91.5 C 243.787,92.8131 248.454,96.3131 251.5,102C 251.138,103.225 250.638,104.391 250,105.5C 233.528,123.307 217.028,141.141 200.5,159C 199.167,159.667 197.833,159.667 196.5,159C 187.571,151.02 178.738,142.853 170,134.5C 169.333,132.5 169.333,130.5 170,128.5C 173.167,126.667 175.667,124.167 177.5,121C 179.167,120.333 180.833,120.333 182.5,121C 187.467,124.966 192.134,129.299 196.5,134C 197.167,134.667 197.833,134.667 198.5,134C 211.366,119.637 224.366,105.471 237.5,91.5 Z"/></g>
<g><path style="opacity:1" fill="#fda727" d="M 52.5,95.5 C 46.8509,103.478 40.8509,111.144 34.5,118.5C 34.9625,113.391 35.9625,108.391 37.5,103.5C 38.2811,104.729 38.7811,106.062 39,107.5C 39.499,103.179 39.6657,98.8461 39.5,94.5C 43.5705,94.7662 47.5705,94.4328 51.5,93.5C 52.2975,93.9569 52.6309,94.6236 52.5,95.5 Z"/></g>
<g><path style="opacity:1" fill="#f06962" d="M 59.5,87.5 C 61.8252,92.7991 64.1586,98.1324 66.5,103.5C 65.603,104.598 64.7697,104.598 64,103.5C 63.5065,101.866 63.3398,100.199 63.5,98.5C 60.4212,98.7399 57.4212,98.4066 54.5,97.5C 52.2586,101.994 49.092,105.661 45,108.5C 45.3333,109.833 45.6667,111.167 46,112.5C 43.1393,114.406 40.8059,116.739 39,119.5C 38.6667,119.167 38.3333,118.833 38,118.5C 37.6667,119.833 37.3333,121.167 37,122.5C 33.7594,126.329 30.0928,129.662 26,132.5C 25.5172,133.448 25.3505,134.448 25.5,135.5C 23.5,136.167 21.5,136.833 19.5,137.5C 18.3984,135.908 19.065,135.075 21.5,135C 22.8228,134.184 23.4894,133.017 23.5,131.5C 25.1361,130.251 26.3028,128.584 27,126.5C 27.3826,127.056 27.8826,127.389 28.5,127.5C 30.0879,125.887 31.0879,123.887 31.5,121.5C 32.8333,120.833 33.8333,119.833 34.5,118.5C 40.8509,111.144 46.8509,103.478 52.5,95.5C 54.2624,94.7377 55.2624,93.4044 55.5,91.5C 56.1667,90.5 56.8333,89.5 57.5,88.5C 58.1667,88.1667 58.8333,87.8333 59.5,87.5 Z"/></g>
<g><path style="opacity:0.4" fill="#fbffec" d="M 32.5,103.5 C 31.8333,102.167 31.8333,102.167 32.5,103.5 Z"/></g>
<g><path style="opacity:1" fill="#fcb043" d="M 49.5,90.5 C 51.5648,90.5172 53.5648,90.8505 55.5,91.5C 55.2624,93.4044 54.2624,94.7377 52.5,95.5C 52.6309,94.6236 52.2975,93.9569 51.5,93.5C 47.5705,94.4328 43.5705,94.7662 39.5,94.5C 39.6657,98.8461 39.499,103.179 39,107.5C 38.7811,106.062 38.2811,104.729 37.5,103.5C 35.9625,108.391 34.9625,113.391 34.5,118.5C 33.8333,119.833 32.8333,120.833 31.5,121.5C 31.5,120.833 31.5,120.167 31.5,119.5C 32.006,114.477 32.6727,109.477 33.5,104.5C 34.184,101.408 35.184,98.4083 36.5,95.5C 39.9932,91.9297 44.3266,90.263 49.5,90.5 Z"/></g>
<g><path style="opacity:0.667" fill="#f8fcea" d="M 32.5,103.5 C 33.1667,103.5 33.5,103.833 33.5,104.5C 33.1667,104.167 32.8333,103.833 32.5,103.5 Z"/></g>
<g><path style="opacity:0.133" fill="#eefffe" d="M 27.5,119.5 C 28.8333,120.167 28.8333,120.167 27.5,119.5 Z"/></g>
<g><path style="opacity:0.267" fill="#f0f3ed" d="M 24.5,121.5 C 25.8333,122.167 25.8333,122.167 24.5,121.5 Z"/></g>
<g><path style="opacity:1" fill="#f7ddc7" d="M 31.5,119.5 C 31.5,120.167 31.5,120.833 31.5,121.5C 31.0879,123.887 30.0879,125.887 28.5,127.5C 28.6614,124.32 29.6614,121.653 31.5,119.5 Z"/></g>
<g><path style="opacity:0.4" fill="#ecfef3" d="M 23.5,131.5 C 22.8333,130.167 22.8333,130.167 23.5,131.5 Z"/></g>
<g><path style="opacity:1" fill="#ed5350" d="M 66.5,103.5 C 86.8678,144.186 107.201,184.853 127.5,225.5C 127.595,227.786 128.262,229.786 129.5,231.5C 129.5,232.167 129.833,232.5 130.5,232.5C 134.576,242.315 138.909,251.982 143.5,261.5C 103.173,230.175 62.8396,198.841 22.5,167.5C 20.7472,165.777 18.7472,164.277 16.5,163C 14.7367,160.819 13.0701,158.653 11.5,156.5C 12.3627,152.012 13.696,147.679 15.5,143.5C 17.5869,142.415 18.9202,140.749 19.5,138.5C 19.5,138.167 19.5,137.833 19.5,137.5C 21.5,136.833 23.5,136.167 25.5,135.5C 25.3505,134.448 25.5172,133.448 26,132.5C 30.0928,129.662 33.7594,126.329 37,122.5C 37.3333,121.167 37.6667,119.833 38,118.5C 38.3333,118.833 38.6667,119.167 39,119.5C 40.8059,116.739 43.1393,114.406 46,112.5C 45.6667,111.167 45.3333,109.833 45,108.5C 49.092,105.661 52.2586,101.994 54.5,97.5C 57.4212,98.4066 60.4212,98.7399 63.5,98.5C 63.3398,100.199 63.5065,101.866 64,103.5C 64.7697,104.598 65.603,104.598 66.5,103.5 Z"/></g>
<g><path style="opacity:1" fill="#f8bdba" d="M 19.5,138.5 C 18.9202,140.749 17.5869,142.415 15.5,143.5C 16.0798,141.251 17.4131,139.585 19.5,138.5 Z"/></g>
<g><path style="opacity:0.133" fill="#eefcf4" d="M 8.5,143.5 C 9.83333,144.167 9.83333,144.167 8.5,143.5 Z"/></g>
<g><path style="opacity:1" fill="#e5fff1" d="M 13.5,144.5 C 12.8333,143.167 12.8333,143.167 13.5,144.5 Z"/></g>
<g><path style="opacity:1" fill="#f49395" d="M 15.5,143.5 C 13.696,147.679 12.3627,152.012 11.5,156.5C 10.0088,152.289 10.6755,148.289 13.5,144.5C 14.1667,144.167 14.8333,143.833 15.5,143.5 Z"/></g>
<g><path style="opacity:0.4" fill="#ecfcf6" d="M 8.5,151.5 C 9.83333,152.167 9.83333,152.167 8.5,151.5 Z"/></g>
<g><path style="opacity:0.133" fill="#eefcf1" d="M 7.5,159.5 C 8.83333,160.167 8.83333,160.167 7.5,159.5 Z"/></g>
<g><path style="opacity:0.667" fill="#e5ded4" d="M 11.5,156.5 C 13.0701,158.653 14.7367,160.819 16.5,163C 18.7472,164.277 20.7472,165.777 22.5,167.5C 21.8333,168.5 21.1667,169.5 20.5,170.5C 20.6495,169.448 20.4828,168.448 20,167.5C 18.6107,171.272 17.6107,171.272 17,167.5C 15.8989,165.606 14.5655,164.939 13,165.5C 11.3186,162.504 10.8186,159.504 11.5,156.5 Z"/></g>
<g><path style="opacity:0.533" fill="#fefeed" d="M 16.5,173.5 C 17.525,173.897 17.6917,174.563 17,175.5C 16.5357,174.906 16.369,174.239 16.5,173.5 Z"/></g>
<g><path style="opacity:1" fill="#fea828" d="M 22.5,167.5 C 62.8396,198.841 103.173,230.175 143.5,261.5C 145.06,263.429 147.06,264.762 149.5,265.5C 149.721,266.735 150.388,267.735 151.5,268.5C 159.865,274.224 167.865,280.224 175.5,286.5C 121.476,275.107 67.4758,263.607 13.5,252C 10.8936,251.208 8.89361,249.708 7.5,247.5C 9.37917,234.219 11.0458,220.885 12.5,207.5C 14.0732,203.359 15.4065,199.026 16.5,194.5C 17.487,191.232 17.8204,187.898 17.5,184.5C 17.5,184.167 17.5,183.833 17.5,183.5C 19.0395,181.162 19.7062,178.495 19.5,175.5C 19.2155,173.585 19.5489,171.919 20.5,170.5C 21.1667,169.5 21.8333,168.5 22.5,167.5 Z"/></g>
<g><path style="opacity:1" fill="#f7d9a6" d="M 19.5,175.5 C 19.7062,178.495 19.0395,181.162 17.5,183.5C 17.2938,180.505 17.9605,177.838 19.5,175.5 Z"/></g>
<g><path style="opacity:1" fill="#f9f7e9" d="M 9.5,196.5 C 10.5735,197.251 10.7401,198.251 10,199.5C 9.51722,198.552 9.35055,197.552 9.5,196.5 Z"/></g>
<g><path style="opacity:1" fill="#f7d194" d="M 17.5,184.5 C 17.8204,187.898 17.487,191.232 16.5,194.5C 15.4065,199.026 14.0732,203.359 12.5,207.5C 12.9167,203.165 13.4167,198.832 14,194.5C 15.4832,191.197 16.6499,187.864 17.5,184.5 Z"/></g>
<g><path style="opacity:0.133" fill="#f8ffee" d="M 8.5,215.5 C 7.83333,214.167 7.83333,214.167 8.5,215.5 Z"/></g>
<g><path style="opacity:0.507" fill="#fdf3dd" d="M 8.5,215.5 C 9.16667,216.167 9.83333,216.833 10.5,217.5C 9.9842,221.709 8.9842,225.709 7.5,229.5C 8.22948,224.87 8.56282,220.203 8.5,215.5 Z"/></g>
<g><path style="opacity:1" fill="#fbc064" d="M 12.5,207.5 C 11.0458,220.885 9.37917,234.219 7.5,247.5C 7.16667,247.5 6.83333,247.5 6.5,247.5C 5.97168,246.279 5.30501,245.113 4.5,244C 5.30235,240.902 5.96902,237.735 6.5,234.5C 6.39184,233.558 6.05851,232.725 5.5,232C 6.75598,231.583 7.42265,230.75 7.5,229.5C 8.9842,225.709 9.9842,221.709 10.5,217.5C 10.322,213.878 10.9886,210.544 12.5,207.5 Z"/></g>
<g><path style="opacity:1" fill="#f6fee8" d="M 3.5,231.5 C 4.61295,232.946 4.77961,234.613 4,236.5C 3.50649,234.866 3.33982,233.199 3.5,231.5 Z"/></g>
<g><path style="opacity:1" fill="#388ef0" d="M 215.5,235.5 C 188.833,235.5 162.167,235.5 135.5,235.5C 159.569,234.829 183.736,234.162 208,233.5C 210.607,234.123 213.107,234.79 215.5,235.5 Z"/></g>
<g><path style="opacity:1" fill="#d4d6d3" d="M 293.5,227.5 C 294.197,232.74 291.863,236.573 286.5,239C 268.123,239.192 249.79,239.692 231.5,240.5C 231.5,239.167 231.5,237.833 231.5,236.5C 249.503,236.667 267.503,236.5 285.5,236C 287.696,234.301 289.696,232.467 291.5,230.5C 292.167,230.5 292.5,230.167 292.5,229.5C 293.338,229.158 293.672,228.492 293.5,227.5 Z"/></g>
<g><path style="opacity:1" fill="#67bb61" d="M 214.5,236.5 C 212.574,238.293 210.241,239.293 207.5,239.5C 183.33,238.833 158.997,238.167 134.5,237.5C 161.158,236.5 187.825,236.167 214.5,236.5 Z"/></g>
<g><path style="opacity:1" fill="#64b76a" d="M 130.5,232.5 C 131.922,233.925 133.589,234.925 135.5,235.5C 162.167,235.5 188.833,235.5 215.5,235.5C 215.5,236.167 215.167,236.5 214.5,236.5C 187.825,236.167 161.158,236.5 134.5,237.5C 158.997,238.167 183.33,238.833 207.5,239.5C 191.113,248.195 174.446,256.695 157.5,265C 154.854,265.497 152.187,265.664 149.5,265.5C 147.06,264.762 145.06,263.429 143.5,261.5C 138.909,251.982 134.576,242.315 130.5,232.5 Z"/></g>
<g><path style="opacity:1" fill="#f9ffe5" d="M 2.5,239.5 C 3.57346,240.251 3.74012,241.251 3,242.5C 2.51722,241.552 2.35055,240.552 2.5,239.5 Z"/></g>
<g><path style="opacity:1" fill="#fca629" d="M 223.5,235.5 C 226.385,235.194 229.052,235.527 231.5,236.5C 231.5,237.833 231.5,239.167 231.5,240.5C 230.921,244.237 230.921,247.904 231.5,251.5C 231.043,252.298 230.376,252.631 229.5,252.5C 228.596,253.209 228.263,254.209 228.5,255.5C 228.5,256.167 228.5,256.833 228.5,257.5C 227.662,257.842 227.328,258.508 227.5,259.5C 227.5,260.167 227.5,260.833 227.5,261.5C 226.566,262.568 226.232,263.901 226.5,265.5C 226.5,266.833 226.5,268.167 226.5,269.5C 225.662,269.842 225.328,270.508 225.5,271.5C 224.596,272.209 224.263,273.209 224.5,274.5C 224.784,276.415 224.451,278.081 223.5,279.5C 222.239,282.258 221.406,285.258 221,288.5C 217.562,293.081 213.062,294.581 207.5,293C 197.24,291.384 187.24,289.217 177.5,286.5C 179.527,286.662 181.527,286.495 183.5,286C 197.7,269.719 211.033,252.886 223.5,235.5 Z"/></g>
<g><path style="opacity:1" fill="#efefe1" d="M 229.5,252.5 C 230.39,254.782 230.556,257.115 230,259.5C 229.23,260.598 228.397,260.598 227.5,259.5C 227.328,258.508 227.662,257.842 228.5,257.5C 229.734,257.715 229.734,257.048 228.5,255.5C 228.263,254.209 228.596,253.209 229.5,252.5 Z"/></g>
<g><path style="opacity:1" fill="#ec534f" d="M 215.5,235.5 C 218.167,235.5 220.833,235.5 223.5,235.5C 211.033,252.886 197.7,269.719 183.5,286C 181.527,286.495 179.527,286.662 177.5,286.5C 176.833,286.5 176.167,286.5 175.5,286.5C 167.865,280.224 159.865,274.224 151.5,268.5C 150.388,267.735 149.721,266.735 149.5,265.5C 152.187,265.664 154.854,265.497 157.5,265C 174.446,256.695 191.113,248.195 207.5,239.5C 210.241,239.293 212.574,238.293 214.5,236.5C 215.167,236.5 215.5,236.167 215.5,235.5 Z"/></g>
<g><path style="opacity:1" fill="#fcf8ec" d="M 228.5,263.5 C 228.639,261.663 229.306,261.33 230.5,262.5C 230.043,263.298 229.376,263.631 228.5,263.5 Z"/></g>
<g><path style="opacity:1" fill="#f1ddd9" d="M 227.5,261.5 C 227.328,262.492 227.662,263.158 228.5,263.5C 228.5,264.833 227.833,265.5 226.5,265.5C 226.232,263.901 226.566,262.568 227.5,261.5 Z"/></g>
<g><path style="opacity:0.467" fill="#fdf9eb" d="M 230.5,267.5 C 231.598,268.601 231.765,269.934 231,271.5C 230.51,270.207 230.343,268.873 230.5,267.5 Z"/></g>
<g><path style="opacity:0.8" fill="#f9fbeb" d="M 226.5,269.5 C 227.833,270.167 227.833,270.833 226.5,271.5C 226.5,270.833 226.5,270.167 226.5,269.5 Z"/></g>
<g><path style="opacity:1" fill="#f0f8f4" d="M 225.5,271.5 C 225.833,271.5 226.167,271.5 226.5,271.5C 227.008,274.176 227.175,276.843 227,279.5C 226.015,277.825 225.181,276.158 224.5,274.5C 224.263,273.209 224.596,272.209 225.5,271.5 Z"/></g>
<g><path style="opacity:0.833" fill="#f9fbe9" d="M 103.5,279.5 C 104.251,278.427 105.251,278.26 106.5,279C 105.552,279.483 104.552,279.649 103.5,279.5 Z"/></g>
<g><path style="opacity:0.667" fill="#eafceb" d="M 151.5,286.5 C 152.833,287.167 152.833,287.167 151.5,286.5 Z"/></g>
<g><path style="opacity:1" fill="#dad7d4" d="M 6.5,247.5 C 6.83333,247.5 7.16667,247.5 7.5,247.5C 8.89361,249.708 10.8936,251.208 13.5,252C 67.4758,263.607 121.476,275.107 175.5,286.5C 176.167,286.5 176.833,286.5 177.5,286.5C 187.24,289.217 197.24,291.384 207.5,293C 213.062,294.581 217.562,293.081 221,288.5C 221.406,285.258 222.239,282.258 223.5,279.5C 222.602,283.947 222.268,288.281 222.5,292.5C 220.683,293.219 220.016,294.219 220.5,295.5C 219.914,295.291 219.414,294.957 219,294.5C 216.776,296.195 214.276,297.195 211.5,297.5C 199.928,295.746 188.762,293.413 178,290.5C 177.228,290.645 176.561,290.978 176,291.5C 175.326,290.422 174.326,289.755 173,289.5C 167.173,288.113 161.34,286.779 155.5,285.5C 154.808,286.025 154.308,286.692 154,287.5C 151.405,286.062 148.738,284.729 146,283.5C 125.331,280.091 104.331,275.758 83,270.5C 81.984,271.634 81.3173,271.301 81,269.5C 78.2722,269.105 75.4389,269.105 72.5,269.5C 70.1247,267.735 67.4581,266.568 64.5,266C 57.3259,264.832 50.1593,263.665 43,262.5C 41.1318,263.71 39.6318,263.21 38.5,261C 29.5339,259.34 20.7006,257.174 12,254.5C 11.586,254.957 11.086,255.291 10.5,255.5C 8.83817,253.518 7.50484,250.851 6.5,247.5 Z"/></g>
<g><path style="opacity:0.933" fill="#e8fff2" d="M 222.5,292.5 C 223.833,293.167 223.833,293.167 222.5,292.5 Z"/></g>
</svg>
